# xmcd CD database file
#
# Track frame offsets:
#	150
#	15040
#	38865
#	60675
#	73117
#	99447
#	121387
#	137062
#	150545
#	173097
#	194430
#	208652
#
# Disc length: 3021 seconds
#
# Revision: 0
# Processed by: cddbd v1.5.2PL0 Copyright (c) Steve Scherf et al.
# Submitted via: CDex 1.51
#
DISCID=9e0bcb0c
DTITLE=Jazz Trio Project (Bobby Durham, Lorenzo Conte, Massimo Farao') - Jazz Lounge Disk 3 (Cinematic: One)
DYEAR=2003
DGENRE=Jazz
TTITLE0=East of Eden
TTITLE1=Love Stroy
TTITLE2=The Way We Were
TTITLE3=Tenpo D'estate
TTITLE4=Over the Rainbow
TTITLE5=Raindrops Keep Fallin' On My Head
TTITLE6=Sunrise, Sunset
TTITLE7=The Big Country
TTITLE8=High Noon
TTITLE9=The Sound of Music
TTITLE10=Theme from "The Godfather"
TTITLE11=Tara's Theme
EXTD=YEAR: 2003
EXTT0=
EXTT1=
EXTT2=
EXTT3=
EXTT4=
EXTT5=
EXTT6=
EXTT7=
EXTT8=
EXTT9=
EXTT10=
EXTT11=
PLAYORDER=
